# xmcd
#
# Track frame offsets:
#	150
#	15370
#	29670
#	45236
#	57306
#	74015
#	92565
#	106535
#	121372
#	135483
#	147719
#	161387
#
# Disc length: 2372 seconds
#
# Revision: 0
# Processed by: cddbd v1.5.2PL0 Copyright (c) Steve Scherf et al.
# Submitted via: dBpowerAMP V4.0
#
DISCID=9c09420c
DTITLE=Various Artist - Norske Danseband vol.2 - CD 1
DYEAR=2005
DGENRE=Danseband
TTITLE0=Ole Ivars - Forelska i deg
TTITLE1=Ingemars - Vår gamle grend
TTITLE2=Anne Nørdsti - Her vil sjela mi bo
TTITLE3=Trond Erics - Vinter, vår eller sommer
TTITLE4=Kim William - Livet mitt var ingenting uten deg
TTITLE5=PK and Dansefolket - Vår lille venn
TTITLE6=Picazzo - Hva var det jeg sa
TTITLE7=Joe Bjørnars - Mannsgris, Sofabonde, Døgenikt og knøl
TTITLE8=Furulunds - Det er bare himmelen
TTITLE9=Nordans - Syvers lørdagsdans
TTITLE10=Dænsebændet - Du har fått din egen plass i mitt hjerte
TTITLE11=Rikingan - Før sola går ned
EXTD=
EXTT0=
EXTT1=
EXTT2=
EXTT3=
EXTT4=
EXTT5=
EXTT6=
EXTT7=
EXTT8=
EXTT9=
EXTT10=
EXTT11=
PLAYORDER=
